<svg width="80" height="23" viewBox="0 0 80 23" fill="none" xmlns="http://www.w3.org/2000/svg">
<path d="M0.9 11.5V4L5.7 0.999999H12.6V22H4.8V9.1L0.9 11.5ZM15.4641 22V15.85L22.6641 12.1C24.6841 11.06 25.9641 10.32 26.5041 9.88C27.0441 9.42 27.3141 8.91 27.3141 8.35C27.3141 7.91 27.1241 7.53 26.7441 7.21C26.3841 6.87 25.8741 6.7 25.2141 6.7C24.3341 6.7 23.6741 7 23.2341 7.6C23.0541 7.84 22.9141 8.14 22.8141 8.5H15.3141C15.5941 7 16.1341 5.65 16.9341 4.45C18.7941 1.75 21.6541 0.399999 25.5141 0.399999C28.4741 0.399999 30.8141 1.12 32.5341 2.56C34.2541 3.98 35.1141 5.71 35.1141 7.75C35.1141 8.67 34.9241 9.54 34.5441 10.36C34.1641 11.18 33.7041 11.86 33.1641 12.4C32.6441 12.92 32.0341 13.4 31.3341 13.84C30.6341 14.28 30.0441 14.61 29.5641 14.83C29.1041 15.03 28.6441 15.21 28.1841 15.37L27.6141 15.55L27.0141 15.7L26.5641 15.85V16.18L28.6641 15.85H35.1141V22H15.4641ZM37.2023 19.15C37.2023 18.25 37.5223 17.48 38.1623 16.84C38.8223 16.18 39.6023 15.85 40.5023 15.85C41.3823 15.85 42.1523 16.18 42.8123 16.84C43.4723 17.5 43.8023 18.27 43.8023 19.15C43.8023 20.05 43.4723 20.83 42.8123 21.49C42.1723 22.13 41.4023 22.45 40.5023 22.45C39.5823 22.45 38.8023 22.13 38.1623 21.49C37.5223 20.85 37.2023 20.07 37.2023 19.15ZM37.2023 8.95C37.2023 8.05 37.5223 7.28 38.1623 6.64C38.8223 5.98 39.6023 5.65 40.5023 5.65C41.3823 5.65 42.1523 5.98 42.8123 6.64C43.4723 7.3 43.8023 8.07 43.8023 8.95C43.8023 9.85 43.4723 10.63 42.8123 11.29C42.1723 11.93 41.4023 12.25 40.5023 12.25C39.5823 12.25 38.8023 11.93 38.1623 11.29C37.5223 10.65 37.2023 9.87 37.2023 8.95ZM45.9035 22V15.85L53.1035 12.1C55.1235 11.06 56.4035 10.32 56.9435 9.88C57.4835 9.42 57.7535 8.91 57.7535 8.35C57.7535 7.91 57.5635 7.53 57.1835 7.21C56.8235 6.87 56.3135 6.7 55.6535 6.7C54.7735 6.7 54.1135 7 53.6735 7.6C53.4935 7.84 53.3535 8.14 53.2535 8.5H45.7535C46.0335 7 46.5735 5.65 47.3735 4.45C49.2335 1.75 52.0935 0.399999 55.9535 0.399999C58.9135 0.399999 61.2535 1.12 62.9735 2.56C64.6935 3.98 65.5535 5.71 65.5535 7.75C65.5535 8.67 65.3635 9.54 64.9835 10.36C64.6035 11.18 64.1435 11.86 63.6035 12.4C63.0835 12.92 62.4735 13.4 61.7735 13.84C61.0735 14.28 60.4835 14.61 60.0035 14.83C59.5435 15.03 59.0835 15.21 58.6235 15.37L58.0535 15.55L57.4535 15.7L57.0035 15.85V16.18L59.1035 15.85H65.5535V22H45.9035ZM67.4918 11.5V4L72.2918 0.999999H79.1918V22H71.3918V9.1L67.4918 11.5Z" fill="black"/>
</svg>
